# File created by Blade
# Date/Time:  Tue Jan 27 17:16:36 2015
#---------------------------------------------------------
:version 1.10
:name HOM
:units
  mass 1.0
  length 1.000000
  angle deg
:documentation
     Acclaim Skeleton File
:root
   axis xyz
   order TX TY TZ RX RY RZ
   position 0.000000 0.000000 0.000000
   orientation 0 0 0
:bonedata
   begin
      id 1
      name Spine_dum
      direction 0.000000 1.000000 0.000000
      length 7.539951
      axis 0.0 0.0 0.0 xyz
   end
   begin
      id 2
      name LeftUpLeg_dum
      direction 1.000000 0.000000 0.000000
      length 3.345476
      axis 0.0 0.0 0.0 xyz
   end
   begin
      id 3
      name RightUpLeg_dum
      direction -1.000000 0.000000 0.000000
      length 3.345476
      axis 0.0 0.0 0.0 xyz
   end
   begin
      id 4
      name Spine
      direction 0.000000 1.000000 0.000000
      length 0.000000
      axis 0.0 0.0 0.0 xyz
      dof rx ry rz
   end
   begin
      id 5
      name Spine_dum1
      direction 0.000000 1.000000 0.000000
      length 15.093809
      axis 0.0 0.0 0.0 xyz
   end
   begin
      id 6
      name Spine_dum2
      direction 0.000000 1.000000 0.000000
      length 9.738928
      axis 0.0 0.0 0.0 xyz
   end
   begin
      id 7
      name Spine_dum3
      direction 0.000000 1.000000 0.000000
      length 9.738928
      axis 0.0 0.0 0.0 xyz
   end
   begin
      id 8
      name Head
      direction 0.000000 1.000000 0.000000
      length 4.527550
      axis 0.0 0.0 0.0 xyz
      dof rx ry rz
   end
   begin
      id 9
      name LeftShoulder
      direction 1.000000 0.000000 0.000000
      length 7.084015
      axis 0.0 0.0 -90.0 xyz
      dof rx ry rz
   end
   begin
      id 10
      name LeftArm
      direction 1.000000 0.000000 0.000000
      length 10.259319
      axis 0.0 0.0 -90.0 xyz
      dof rx ry rz
   end
   begin
      id 11
      name LeftForeArm
      direction 1.000000 0.000000 0.000000
      length 9.896984
      axis 0.0 0.0 -90.0 xyz
      dof ry rz rx
   end
   begin
      id 12
      name LeftHand
      direction 0.000000 0.000000 0.000000
      length 0.000000
      axis 0.0 0.0 -90.0 xyz
      dof rx ry rz
   end
   begin
      id 13
      name LeftHand_dum1
      direction 0.000000 0.000000 0.000000
      length 0.000000
      axis 0.0 0.0 -90.0 xyz
   end
   begin
      id 14
      name LeftHand_dum2
      direction 1.000000 0.000000 0.000000
      length 3.937000
      axis 0.0 0.0 -90.0 xyz
   end
   begin
      id 15
      name LeftHandThumb1
      direction 0.000000 0.000000 1.000000
      length 3.937000
      axis 0.0 0.0 -90.0 xyz
      dof rx rz ry
   end
   begin
      id 16
      name RightShoulder
      direction -1.000000 0.000000 0.000000
      length 7.084015
      axis 0.0 0.0 90.0 xyz
      dof rx ry rz
   end
   begin
      id 17
      name RightArm
      direction -1.000000 0.000000 0.000000
      length 10.259319
      axis 0.0 0.0 90.0 xyz
      dof rx ry rz
   end
   begin
      id 18
      name RightForeArm
      direction -1.000000 0.000000 0.000000
      length 9.896984
      axis 0.0 0.0 90.0 xyz
      dof ry rz rx
   end
   begin
      id 19
      name RightHand
      direction 0.000000 0.000000 0.000000
      length 0.000000
      axis 0.0 0.0 90.0 xyz
      dof rx ry rz
   end
   begin
      id 20
      name RightHand_dum1
      direction 0.000000 0.000000 0.000000
      length 0.000000
      axis 0.0 0.0 90.0 xyz
   end
   begin
      id 21
      name RightHand_dum2
      direction -1.000000 0.000000 0.000000
      length 3.937000
      axis 0.0 0.0 90.0 xyz
   end
   begin
      id 22
      name RightHandThumb1
      direction 0.000000 0.000000 1.000000
      length 3.937000
      axis 0.0 0.0 90.0 xyz
      dof rx rz ry
   end
   begin
      id 23
      name LeftUpLeg
      direction 0.000000 -1.000000 0.000000
      length 19.114733
      axis 0.0 0.0 0.0 xyz
      dof rx ry rz
   end
   begin
      id 24
      name LeftLeg
      direction 0.000000 -1.000000 0.000000
      length 16.045604
      axis 0.0 0.0 0.0 xyz
      dof rx ry rz
   end
   begin
      id 25
      name LeftFoot
      direction 0.000000 -0.258819 0.965926
      length 5.543155
      axis 15.0 0.0 0.0 xyz
      dof rx ry rz
   end
   begin
      id 26
      name LeftToeBase
      direction 0.000000 0.000000 1.000000
      length 2.952750
      axis 0.0 0.0 0.0 xyz
      dof rx ry rz
   end
   begin
      id 27
      name RightUpLeg
      direction 0.000000 -1.000000 0.000000
      length 19.114733
      axis 0.0 0.0 0.0 xyz
      dof rx ry rz
   end
   begin
      id 28
      name RightLeg
      direction 0.000000 -1.000000 0.000000
      length 16.045604
      axis 0.0 0.0 0.0 xyz
      dof rx ry rz
   end
   begin
      id 29
      name RightFoot
      direction 0.000000 -0.258819 0.965926
      length 5.543155
      axis 15.0 0.0 0.0 xyz
      dof rx ry rz
   end
   begin
      id 30
      name RightToeBase
      direction 0.000000 0.000000 1.000000
      length 2.952750
      axis 0.0 0.0 0.0 xyz
      dof rx ry rz
   end
:hierarchy
   begin
      root Spine_dum LeftUpLeg_dum RightUpLeg_dum
      Spine_dum Spine
      LeftUpLeg_dum LeftUpLeg
      RightUpLeg_dum RightUpLeg
      Spine Spine_dum1 Spine_dum2 Spine_dum3
      Spine_dum1 Head
      Spine_dum2 LeftShoulder
      Spine_dum3 RightShoulder
      LeftShoulder LeftArm
      LeftArm LeftForeArm
      LeftForeArm LeftHand
      LeftHand LeftHand_dum1 LeftHand_dum2
      LeftHand_dum1 LeftHandThumb1
      RightShoulder RightArm
      RightArm RightForeArm
      RightForeArm RightHand
      RightHand RightHand_dum1 RightHand_dum2
      RightHand_dum1 RightHandThumb1
      LeftUpLeg LeftLeg
      LeftLeg LeftFoot
      LeftFoot LeftToeBase
      RightUpLeg RightLeg
      RightLeg RightFoot
      RightFoot RightToeBase
   end

# File created by Blade
# Date/Time:  Tue Jan 27 17:16:27 2015
# Frame Rate: 120.000 fps
#------------------------------------------------------
:FULLY-SPECIFIED
:DEGREES
1217
root -3.377456 36.601228 1.080630 -0.085462 -5.557281 4.149573
Spine 6.641124 10.451851 -7.895161
Head -4.484179 -4.057585 6.381101
LeftShoulder -4.473677 -12.915122 11.686752
LeftArm -11.117701 -24.069605 -27.361306
LeftForeArm 6.768562 -0.000000 65.815492
LeftHand -16.688518 -0.000000 53.954524
LeftHandThumb1 -26.253704 0.000000 33.147579
RightShoulder -5.045422 -18.631255 2.752960
RightArm 15.157789 -17.684307 58.384303
RightForeArm -175.848734 -0.000000 28.375043
RightHand 0.713294 -0.000000 5.045965
RightHandThumb1 -24.326973 -0.000000 -32.862282
LeftUpLeg -67.929076 19.129795 -2.034174
LeftLeg 83.869832 -0.000000 -0.000000
LeftFoot -8.433474 7.489486 -22.902666
LeftToeBase 15.958759 -0.000000 -0.000000
RightUpLeg -9.553315 -8.568882 3.498430
RightLeg 23.764196 -0.000000 -0.000000
RightFoot -19.089957 -9.305902 0.220647
RightToeBase 3.499221 -0.000000 -0.000000
1218
root -3.378838 36.595061 1.074466 0.001420 -5.508416 4.068923
Spine 6.514439 10.432493 -7.876703
Head -4.460413 -4.179930 6.521714
LeftShoulder -4.466867 -12.915063 11.726513
LeftArm -11.103462 -24.105111 -27.385742
LeftForeArm 6.979933 -0.000000 65.852236
LeftHand -16.793448 -0.000000 53.979873
LeftHandThumb1 -26.253704 0.000000 33.147579
RightShoulder -5.042412 -18.608268 2.806535
RightArm 15.129915 -17.678662 58.373843
RightForeArm -175.858259 -0.000000 28.340536
RightHand 0.714182 -0.000000 5.032279
RightHandThumb1 -24.326973 -0.000000 -32.862282
LeftUpLeg -68.615560 19.481165 -3.064365
LeftLeg 84.726875 -0.000000 -0.000000
LeftFoot -9.218293 8.470875 -23.096619
LeftToeBase 16.177225 -0.000000 -0.000000
RightUpLeg -9.647309 -8.674722 3.594191
RightLeg 23.779322 -0.000000 -0.000000
RightFoot -19.105919 -9.252970 0.219623
RightToeBase 3.524744 -0.000000 -0.000000
1219
root -3.384004 36.589070 1.070332 0.084282 -5.446507 3.950825
Spine 6.402291 10.412607 -7.816373
Head -4.461885 -4.252253 6.605685
LeftShoulder -4.447506 -12.977730 11.732203
LeftArm -11.139759 -24.104466 -27.342149
LeftForeArm 6.848572 0.000000 65.884527
LeftHand -16.423501 -0.000000 53.636881
LeftHandThumb1 -26.253704 0.000000 33.147579
RightShoulder -5.039877 -18.576982 2.868200
RightArm 15.094814 -17.676792 58.365352
RightForeArm -175.891389 -0.000000 28.287527
RightHand 0.716557 -0.000000 5.149129
RightHandThumb1 -24.326973 -0.000000 -32.862282
LeftUpLeg -69.408804 19.901312 -4.240946
LeftLeg 85.765455 -0.000000 -0.000000
LeftFoot -10.272754 9.514378 -23.742557
LeftToeBase 16.274157 -0.000000 -0.000000
RightUpLeg -9.716619 -8.796431 3.731304
RightLeg 23.762926 -0.000000 -0.000000
RightFoot -19.109570 -9.213900 0.227508
RightToeBase 3.528235 -0.000000 -0.000000
1220
root -3.390135 36.582929 1.066556 0.183975 -5.373189 3.823744
Spine 6.263714 10.389023 -7.763506
Head -4.455119 -4.341885 6.765301
LeftShoulder -4.446273 -13.003045 11.759774
LeftArm -11.102843 -24.106255 -27.337673
LeftForeArm 6.929414 0.000000 65.926915
LeftHand -16.448039 -0.000000 53.660531
LeftHandThumb1 -26.253704 0.000000 33.147579
RightShoulder -5.040534 -18.562232 2.959391
RightArm 15.060764 -17.639959 58.349433
RightForeArm -175.922688 -0.000000 28.226377
RightHand 0.644228 -0.000000 5.131624
RightHandThumb1 -24.326973 -0.000000 -32.862282
LeftUpLeg -70.344067 20.381453 -5.605048
LeftLeg 86.964134 -0.000000 -0.000000
LeftFoot -11.318873 10.705363 -24.285256
LeftToeBase 15.962122 -0.000000 -0.000000
RightUpLeg -9.795047 -8.900846 3.882044
RightLeg 23.754027 -0.000000 -0.000000
RightFoot -19.062941 -9.145131 0.111548
RightToeBase 3.412422 -0.000000 -0.000000
1221
root -3.398015 36.576642 1.064296 0.260491 -5.260543 3.667371
Spine 6.161494 10.336884 -7.669580
Head -4.447012 -4.440200 6.930064
LeftShoulder -4.463553 -12.986304 11.783806
LeftArm -10.998292 -24.122557 -27.380857
LeftForeArm 6.918976 -0.000000 66.030192
LeftHand -16.699388 -0.000000 53.552467
LeftHandThumb1 -26.253704 0.000000 33.147579
RightShoulder -5.011959 -18.546643 3.048995
RightArm 15.001719 -17.596902 58.328322
RightForeArm -175.952828 -0.000000 28.186114
RightHand 0.659332 -0.000000 5.117215
RightHandThumb1 -24.326973 -0.000000 -32.862282
LeftUpLeg -71.366589 20.883125 -7.092012
LeftLeg 88.336071 -0.000000 -0.000000
LeftFoot -12.410732 11.788981 -25.003937
LeftToeBase 15.581202 -0.000000 -0.000000
RightUpLeg -9.836604 -9.040704 4.059011
RightLeg 23.716463 -0.000000 -0.000000
RightFoot -19.048104 -9.116575 0.113909
RightToeBase 3.420800 -0.000000 -0.000000
1222
root -3.405564 36.570523 1.062640 0.324141 -5.144717 3.500757
Spine 6.088839 10.304934 -7.552418
Head -4.483079 -4.539607 7.109303
LeftShoulder -4.463521 -13.003527 11.810521
LeftArm -10.919000 -24.148700 -27.440249
LeftForeArm 6.943270 -0.000000 66.095312
LeftHand -16.642284 0.000000 53.434207
LeftHandThumb1 -26.253704 0.000000 33.147579
RightShoulder -5.005791 -18.506361 3.147085
RightArm 14.944204 -17.542153 58.306212
RightForeArm -176.026068 -0.000000 28.135302
RightHand 0.702366 -0.000000 5.137203
RightHandThumb1 -24.326973 -0.000000 -32.862282
LeftUpLeg -72.472079 21.411323 -8.723775
LeftLeg 89.801374 -0.000000 -0.000000
LeftFoot -13.446819 12.801858 -25.572326
LeftToeBase 15.359465 -0.000000 -0.000000
RightUpLeg -9.855089 -9.144864 4.244226
RightLeg 23.658076 -0.000000 -0.000000
RightFoot -19.039964 -9.117015 0.158199
RightToeBase 3.475305 -0.000000 -0.000000
1223
root -3.412762 36.562592 1.058338 0.407986 -5.006357 3.337865
Spine 6.001806 10.276888 -7.443705
Head -4.543806 -4.696985 7.278652
LeftShoulder -4.427991 -13.026308 11.866346
LeftArm -10.860101 -24.201680 -27.531104
LeftForeArm 6.955840 -0.000000 66.159317
LeftHand -16.545487 0.000000 53.313652
LeftHandThumb1 -26.253704 0.000000 33.147579
RightShoulder -5.022916 -18.510550 3.252458
RightArm 14.946782 -17.455757 58.279942
RightForeArm -175.985495 0.000000 28.063526
RightHand 0.724266 -0.000000 5.072873
RightHandThumb1 -24.326973 -0.000000 -32.862282
LeftUpLeg -73.697761 21.905752 -10.514005
LeftLeg 91.367589 -0.000000 -0.000000
LeftFoot -14.256236 13.793957 -25.749468
LeftToeBase 15.257310 -0.000000 -0.000000
RightUpLeg -9.902924 -9.245906 4.429579
RightLeg 23.612195 -0.000000 -0.000000
RightFoot -19.044532 -9.146011 0.173596
RightToeBase 3.503013 -0.000000 -0.000000
1224
root -3.424579 36.553924 1.056767 0.441191 -4.847812 3.095154
Spine 6.002662 10.238820 -7.217019
Head -4.657046 -4.832676 7.441514
LeftShoulder -4.417856 -13.022057 11.872113
LeftArm -10.739254 -24.267837 -27.606032
LeftForeArm 7.029575 0.000000 66.222866
LeftHand -16.554732 0.000000 53.330552
LeftHandThumb1 -26.253704 0.000000 33.147579
RightShoulder -5.021869 -18.461982 3.329695
RightArm 14.906654 -17.386692 58.257666
RightForeArm -175.857083 -0.000000 27.980313
RightHand 0.646633 -0.000000 5.054678
RightHandThumb1 -24.326973 -0.000000 -32.862282
LeftUpLeg -74.950558 22.383130 -12.323481
LeftLeg 93.022543 -0.000000 -0.000000
LeftFoot -14.840119 14.705379 -25.708612
LeftToeBase 15.334785 -0.000000 -0.000000
RightUpLeg -9.877359 -9.339522 4.694594
RightLeg 23.536650 -0.000000 -0.000000
RightFoot -19.018752 -9.216688 0.222272
RightToeBase 3.533933 -0.000000 -0.000000
1225
root -3.436061 36.543945 1.054351 0.470067 -4.647320 2.885191
Spine 6.008438 10.169735 -7.044358
Head -4.757023 -4.948179 7.656774
LeftShoulder -4.363628 -13.055399 11.906967
LeftArm -10.704965 -24.290701 -27.656525
LeftForeArm 7.012885 -0.000000 66.330351
LeftHand -16.507020 -0.000000 53.261317
LeftHandThumb1 -26.253704 0.000000 33.147579
RightShoulder -4.991270 -18.422376 3.415167
RightArm 14.855728 -17.303928 58.247668
RightForeArm -175.864521 0.000000 27.913922
RightHand 0.703470 0.000000 5.026485
RightHandThumb1 -24.326973 -0.000000 -32.862282
LeftUpLeg -76.253264 22.768153 -14.233377
LeftLeg 94.688973 -0.000000 -0.000000
LeftFoot -14.955963 15.473324 -25.255570
LeftToeBase 15.449904 -0.000000 -0.000000
RightUpLeg -9.860093 -9.453907 4.930879
RightLeg 23.505366 -0.000000 -0.000000
RightFoot -19.006564 -9.193644 0.352549
RightToeBase 3.660975 -0.000000 -0.000000
1226
root -3.449895 36.531435 1.054714 0.485343 -4.430437 2.653331
Spine 6.023900 10.092980 -6.835128
Head -4.843984 -5.077652 7.843899
LeftShoulder -4.296773 -13.106083 11.956349
LeftArm -10.679705 -24.312482 -27.729338
LeftForeArm 7.061842 -0.000000 66.410317
LeftHand -16.517239 -0.000000 53.177872
LeftHandThumb1 -26.253704 0.000000 33.147579
RightShoulder -4.944858 -18.388701 3.464660
RightArm 14.822227 -17.244641 58.263274
RightForeArm -175.847188 -0.000000 27.811288
RightHand 0.699743 -0.000000 5.077736
RightHandThumb1 -24.326973 -0.000000 -32.862282
LeftUpLeg -77.572077 23.085124 -16.147090
LeftLeg 96.412285 -0.000000 -0.000000
LeftFoot -15.157584 15.751419 -25.875683
LeftToeBase 15.921974 -0.000000 -0.000000
RightUpLeg -9.826336 -9.560693 5.185988
RightLeg 23.459666 -0.000000 -0.000000
RightFoot -19.022029 -9.279565 0.433495
RightToeBase 3.669893 -0.000000 -0.000000
1227
root -3.461727 36.518152 1.052123 0.511532 -4.190365 2.412913
Spine 6.044058 9.994248 -6.611731
Head -4.952240 -5.172584 8.024019
LeftShoulder -4.261255 -13.173428 12.004082
LeftArm -10.615675 -24.323801 -27.825682
LeftForeArm 7.125608 -0.000000 66.510524
LeftHand -16.593598 -0.000000 53.074539
LeftHandThumb1 -26.253704 0.000000 33.147579
RightShoulder -4.908201 -18.353135 3.528104
RightArm 14.795349 -17.159865 58.255125
RightForeArm -175.743379 -0.000000 27.720449
RightHand 0.687981 -0.000000 5.046867
RightHandThumb1 -24.326973 -0.000000 -32.862282
LeftUpLeg -78.933231 23.285714 -18.121085
LeftLeg 98.109936 -0.000000 -0.000000
LeftFoot -14.798620 16.091851 -26.015933
LeftToeBase 15.894425 -0.000000 -0.000000
RightUpLeg -9.822569 -9.713316 5.448572
RightLeg 23.435222 -0.000000 -0.000000
RightFoot -19.042816 -9.372542 0.479938
RightToeBase 3.680256 -0.000000 -0.000000
1228
root -3.473320 36.504053 1.051656 0.527648 -3.921274 2.199755
Spine 6.066479 9.908508 -6.429209
Head -5.064946 -5.322711 8.249307
LeftShoulder -4.163707 -13.207539 12.044149
LeftArm -10.557663 -24.336449 -27.884074
LeftForeArm 7.176288 -0.000000 66.583760
LeftHand -16.514708 -0.000000 53.034772
LeftHandThumb1 -26.253704 0.000000 33.147579
RightShoulder -4.894426 -18.293850 3.616374
RightArm 14.726740 -17.081838 58.256901
RightForeArm -175.629161 -0.000000 27.667671
RightHand 0.838987 -0.000000 4.848391
RightHandThumb1 -24.326973 -0.000000 -32.862282
LeftUpLeg -80.270777 23.394694 -20.103927
LeftLeg 99.773484 -0.000000 -0.000000
LeftFoot -14.435420 16.025833 -26.347399
LeftToeBase 16.728101 -0.000000 -0.000000
RightUpLeg -9.820636 -9.902775 5.683659
RightLeg 23.435466 -0.000000 -0.000000
RightFoot -19.087106 -9.442413 0.543936
RightToeBase 3.720030 -0.000000 -0.000000
